<mxfile host="app.diagrams.net" agent="Mozilla/5.0 (Windows NT 10.0; Win64; x64) AppleWebKit/537.36 (KHTML, like Gecko) Chrome/130.0.0.0 Safari/537.36 Edg/130.0.0.0" version="24.8.4">
  <diagram id="R2lEEEUBdFMjLlhIrx00" name="Page-1">
    <mxGraphModel dx="1982" dy="669" grid="1" gridSize="10" guides="1" tooltips="1" connect="1" arrows="1" fold="1" page="1" pageScale="1" pageWidth="850" pageHeight="1100" math="0" shadow="0" extFonts="Permanent Marker^https://fonts.googleapis.com/css?family=Permanent+Marker">
      <root>
        <mxCell id="0" />
        <mxCell id="1" parent="0" />
        <mxCell id="DufjBpLcltL52u9y2ums-82" value="" style="shape=table;startSize=0;container=1;collapsible=0;childLayout=tableLayout;fontSize=14;fillColor=#e6d0de;strokeColor=#996185;gradientColor=#d5739d;" vertex="1" parent="1">
          <mxGeometry x="50" y="650" width="240" height="90" as="geometry" />
        </mxCell>
        <mxCell id="DufjBpLcltL52u9y2ums-83" value="" style="shape=tableRow;horizontal=0;startSize=0;swimlaneHead=0;swimlaneBody=0;strokeColor=#996185;top=0;left=0;bottom=0;right=0;collapsible=0;dropTarget=0;fillColor=#e6d0de;points=[[0,0.5],[1,0.5]];portConstraint=eastwest;fontSize=14;gradientColor=#d5739d;" vertex="1" parent="DufjBpLcltL52u9y2ums-82">
          <mxGeometry width="240" height="45" as="geometry" />
        </mxCell>
        <mxCell id="DufjBpLcltL52u9y2ums-84" value="&lt;span style=&quot;font-size: 14px; font-weight: 700;&quot;&gt;user ID&lt;/span&gt;" style="shape=partialRectangle;html=1;whiteSpace=wrap;connectable=0;strokeColor=#996185;overflow=hidden;fillColor=#e6d0de;top=0;left=0;bottom=0;right=0;pointerEvents=1;fontSize=14;gradientColor=#d5739d;" vertex="1" parent="DufjBpLcltL52u9y2ums-83">
          <mxGeometry width="60" height="45" as="geometry">
            <mxRectangle width="60" height="45" as="alternateBounds" />
          </mxGeometry>
        </mxCell>
        <mxCell id="DufjBpLcltL52u9y2ums-85" value="&lt;span style=&quot;font-size: 14px; font-weight: 700;&quot;&gt;First Name&lt;/span&gt;" style="shape=partialRectangle;html=1;whiteSpace=wrap;connectable=0;strokeColor=#996185;overflow=hidden;fillColor=#e6d0de;top=0;left=0;bottom=0;right=0;pointerEvents=1;fontSize=14;gradientColor=#d5739d;" vertex="1" parent="DufjBpLcltL52u9y2ums-83">
          <mxGeometry x="60" width="60" height="45" as="geometry">
            <mxRectangle width="60" height="45" as="alternateBounds" />
          </mxGeometry>
        </mxCell>
        <mxCell id="DufjBpLcltL52u9y2ums-86" value="&lt;span style=&quot;font-size: 14px; font-weight: 700;&quot;&gt;Last Name&lt;/span&gt;" style="shape=partialRectangle;html=1;whiteSpace=wrap;connectable=0;strokeColor=#996185;overflow=hidden;fillColor=#e6d0de;top=0;left=0;bottom=0;right=0;pointerEvents=1;fontSize=14;gradientColor=#d5739d;" vertex="1" parent="DufjBpLcltL52u9y2ums-83">
          <mxGeometry x="120" width="60" height="45" as="geometry">
            <mxRectangle width="60" height="45" as="alternateBounds" />
          </mxGeometry>
        </mxCell>
        <mxCell id="DufjBpLcltL52u9y2ums-164" value="&lt;span style=&quot;font-size: 14px; font-weight: 700;&quot;&gt;Password&lt;/span&gt;" style="shape=partialRectangle;html=1;whiteSpace=wrap;connectable=0;strokeColor=#996185;overflow=hidden;fillColor=#e6d0de;top=0;left=0;bottom=0;right=0;pointerEvents=1;fontSize=14;gradientColor=#d5739d;" vertex="1" parent="DufjBpLcltL52u9y2ums-83">
          <mxGeometry x="180" width="60" height="45" as="geometry">
            <mxRectangle width="60" height="45" as="alternateBounds" />
          </mxGeometry>
        </mxCell>
        <mxCell id="DufjBpLcltL52u9y2ums-99" value="" style="shape=tableRow;horizontal=0;startSize=0;swimlaneHead=0;swimlaneBody=0;strokeColor=#996185;top=0;left=0;bottom=0;right=0;collapsible=0;dropTarget=0;fillColor=#e6d0de;points=[[0,0.5],[1,0.5]];portConstraint=eastwest;fontSize=14;gradientColor=#d5739d;" vertex="1" parent="DufjBpLcltL52u9y2ums-82">
          <mxGeometry y="45" width="240" height="45" as="geometry" />
        </mxCell>
        <mxCell id="DufjBpLcltL52u9y2ums-100" value="" style="shape=partialRectangle;html=1;whiteSpace=wrap;connectable=0;strokeColor=#996185;overflow=hidden;fillColor=#e6d0de;top=0;left=0;bottom=0;right=0;pointerEvents=1;fontSize=14;gradientColor=#d5739d;" vertex="1" parent="DufjBpLcltL52u9y2ums-99">
          <mxGeometry width="60" height="45" as="geometry">
            <mxRectangle width="60" height="45" as="alternateBounds" />
          </mxGeometry>
        </mxCell>
        <mxCell id="DufjBpLcltL52u9y2ums-101" value="" style="shape=partialRectangle;html=1;whiteSpace=wrap;connectable=0;strokeColor=#996185;overflow=hidden;fillColor=#e6d0de;top=0;left=0;bottom=0;right=0;pointerEvents=1;fontSize=14;gradientColor=#d5739d;" vertex="1" parent="DufjBpLcltL52u9y2ums-99">
          <mxGeometry x="60" width="60" height="45" as="geometry">
            <mxRectangle width="60" height="45" as="alternateBounds" />
          </mxGeometry>
        </mxCell>
        <mxCell id="DufjBpLcltL52u9y2ums-102" value="" style="shape=partialRectangle;html=1;whiteSpace=wrap;connectable=0;strokeColor=#996185;overflow=hidden;fillColor=#e6d0de;top=0;left=0;bottom=0;right=0;pointerEvents=1;fontSize=14;gradientColor=#d5739d;" vertex="1" parent="DufjBpLcltL52u9y2ums-99">
          <mxGeometry x="120" width="60" height="45" as="geometry">
            <mxRectangle width="60" height="45" as="alternateBounds" />
          </mxGeometry>
        </mxCell>
        <mxCell id="DufjBpLcltL52u9y2ums-165" style="shape=partialRectangle;html=1;whiteSpace=wrap;connectable=0;strokeColor=#996185;overflow=hidden;fillColor=#e6d0de;top=0;left=0;bottom=0;right=0;pointerEvents=1;fontSize=14;gradientColor=#d5739d;" vertex="1" parent="DufjBpLcltL52u9y2ums-99">
          <mxGeometry x="180" width="60" height="45" as="geometry">
            <mxRectangle width="60" height="45" as="alternateBounds" />
          </mxGeometry>
        </mxCell>
        <mxCell id="DufjBpLcltL52u9y2ums-3" value="User" style="whiteSpace=wrap;html=1;align=center;fillColor=#e6d0de;strokeColor=#996185;gradientColor=#d5739d;fontStyle=1;labelBackgroundColor=none;fontSize=14;" vertex="1" parent="1">
          <mxGeometry x="70" y="180" width="100" height="40" as="geometry" />
        </mxCell>
        <mxCell id="DufjBpLcltL52u9y2ums-12" value="" style="endArrow=none;html=1;rounded=0;entryX=0;entryY=0;entryDx=0;entryDy=0;fillColor=#e6d0de;strokeColor=#996185;gradientColor=#d5739d;fontStyle=1;labelBackgroundColor=none;align=center;fontSize=14;" edge="1" parent="1" target="DufjBpLcltL52u9y2ums-3">
          <mxGeometry relative="1" as="geometry">
            <mxPoint x="-30" y="139" as="sourcePoint" />
            <mxPoint x="130" y="139" as="targetPoint" />
          </mxGeometry>
        </mxCell>
        <mxCell id="DufjBpLcltL52u9y2ums-13" value="" style="endArrow=none;html=1;rounded=0;entryX=0.5;entryY=0;entryDx=0;entryDy=0;fillColor=#e6d0de;strokeColor=#996185;gradientColor=#d5739d;fontStyle=1;labelBackgroundColor=none;align=center;fontSize=14;" edge="1" parent="1" target="DufjBpLcltL52u9y2ums-3">
          <mxGeometry relative="1" as="geometry">
            <mxPoint x="120" y="140" as="sourcePoint" />
            <mxPoint x="120" y="190" as="targetPoint" />
          </mxGeometry>
        </mxCell>
        <mxCell id="DufjBpLcltL52u9y2ums-14" value="" style="endArrow=none;html=1;rounded=0;entryX=1;entryY=0;entryDx=0;entryDy=0;fillColor=#e6d0de;strokeColor=#996185;gradientColor=#d5739d;fontStyle=1;labelBackgroundColor=none;align=center;fontSize=14;" edge="1" parent="1" target="DufjBpLcltL52u9y2ums-3">
          <mxGeometry relative="1" as="geometry">
            <mxPoint x="250" y="140" as="sourcePoint" />
            <mxPoint x="410" y="140" as="targetPoint" />
          </mxGeometry>
        </mxCell>
        <mxCell id="DufjBpLcltL52u9y2ums-15" value="" style="endArrow=none;html=1;rounded=0;entryX=0.5;entryY=1;entryDx=0;entryDy=0;exitX=0.5;exitY=0;exitDx=0;exitDy=0;fillColor=#e6d0de;strokeColor=#996185;gradientColor=#d5739d;fontStyle=1;labelBackgroundColor=none;align=center;fontSize=14;" edge="1" parent="1" target="DufjBpLcltL52u9y2ums-3">
          <mxGeometry relative="1" as="geometry">
            <mxPoint x="120" y="260" as="sourcePoint" />
            <mxPoint x="270" y="260" as="targetPoint" />
          </mxGeometry>
        </mxCell>
        <mxCell id="DufjBpLcltL52u9y2ums-18" value="user ID" style="ellipse;whiteSpace=wrap;html=1;align=center;fillColor=#e6d0de;strokeColor=#996185;gradientColor=#d5739d;fontStyle=1;labelBackgroundColor=none;fontSize=14;" vertex="1" parent="1">
          <mxGeometry x="-70" y="100" width="100" height="40" as="geometry" />
        </mxCell>
        <mxCell id="DufjBpLcltL52u9y2ums-19" value="First Name" style="ellipse;whiteSpace=wrap;html=1;align=center;fillColor=#e6d0de;strokeColor=#996185;gradientColor=#d5739d;fontStyle=1;labelBackgroundColor=none;fontSize=14;" vertex="1" parent="1">
          <mxGeometry x="70" y="100" width="100" height="40" as="geometry" />
        </mxCell>
        <mxCell id="DufjBpLcltL52u9y2ums-20" value="Last Name" style="ellipse;whiteSpace=wrap;html=1;align=center;fillColor=#e6d0de;strokeColor=#996185;gradientColor=#d5739d;fontStyle=1;labelBackgroundColor=none;fontSize=14;" vertex="1" parent="1">
          <mxGeometry x="210" y="100" width="100" height="40" as="geometry" />
        </mxCell>
        <mxCell id="DufjBpLcltL52u9y2ums-21" value="Password" style="ellipse;whiteSpace=wrap;html=1;align=center;fillColor=#e6d0de;strokeColor=#996185;gradientColor=#d5739d;fontStyle=1;labelBackgroundColor=none;fontSize=14;" vertex="1" parent="1">
          <mxGeometry x="70" y="260" width="100" height="40" as="geometry" />
        </mxCell>
        <mxCell id="DufjBpLcltL52u9y2ums-22" value="" style="shape=link;html=1;rounded=0;entryX=1;entryY=0.5;entryDx=0;entryDy=0;exitX=0;exitY=0.5;exitDx=0;exitDy=0;fontStyle=1;labelBackgroundColor=none;align=center;fillColor=#e6d0de;gradientColor=#d5739d;strokeColor=#996185;fontSize=14;" edge="1" parent="1" source="DufjBpLcltL52u9y2ums-25" target="DufjBpLcltL52u9y2ums-3">
          <mxGeometry relative="1" as="geometry">
            <mxPoint x="370" y="200" as="sourcePoint" />
            <mxPoint x="260" y="160" as="targetPoint" />
          </mxGeometry>
        </mxCell>
        <mxCell id="DufjBpLcltL52u9y2ums-23" value="&lt;font color=&quot;#d5739d&quot; style=&quot;font-size: 18px;&quot;&gt;1&lt;/font&gt;" style="resizable=0;html=1;whiteSpace=wrap;align=center;verticalAlign=bottom;fontStyle=1;labelBackgroundColor=none;fontSize=14;" connectable="0" vertex="1" parent="DufjBpLcltL52u9y2ums-22">
          <mxGeometry x="1" relative="1" as="geometry">
            <mxPoint x="40" y="-10" as="offset" />
          </mxGeometry>
        </mxCell>
        <mxCell id="DufjBpLcltL52u9y2ums-25" value="Send" style="shape=rhombus;perimeter=rhombusPerimeter;whiteSpace=wrap;html=1;align=center;fontStyle=1;labelBackgroundColor=none;fillColor=#e6d0de;gradientColor=#d5739d;strokeColor=#996185;fontSize=14;" vertex="1" parent="1">
          <mxGeometry x="330" y="170" width="120" height="60" as="geometry" />
        </mxCell>
        <mxCell id="DufjBpLcltL52u9y2ums-26" value="Messages " style="whiteSpace=wrap;html=1;align=center;fontStyle=1;labelBackgroundColor=none;fillColor=#e6d0de;gradientColor=#d5739d;strokeColor=#996185;fontSize=14;" vertex="1" parent="1">
          <mxGeometry x="610" y="180" width="100" height="40" as="geometry" />
        </mxCell>
        <mxCell id="DufjBpLcltL52u9y2ums-33" value="&lt;font style=&quot;font-size: 14px;&quot;&gt;Message&lt;/font&gt;&lt;div style=&quot;font-size: 14px;&quot;&gt;&lt;font style=&quot;font-size: 14px;&quot;&gt;ID&lt;/font&gt;&lt;/div&gt;&lt;div style=&quot;font-size: 14px;&quot;&gt;&lt;font style=&quot;font-size: 14px;&quot;&gt;(Key)&lt;/font&gt;&lt;/div&gt;" style="ellipse;whiteSpace=wrap;html=1;align=center;fontStyle=1;labelBackgroundColor=none;fillColor=#e6d0de;gradientColor=#d5739d;strokeColor=#996185;fontSize=14;" vertex="1" parent="1">
          <mxGeometry x="530" y="70" width="70" height="70" as="geometry" />
        </mxCell>
        <mxCell id="DufjBpLcltL52u9y2ums-36" value="Subject" style="ellipse;whiteSpace=wrap;html=1;align=center;fontStyle=1;labelBackgroundColor=none;fillColor=#e6d0de;gradientColor=#d5739d;strokeColor=#996185;fontSize=14;" vertex="1" parent="1">
          <mxGeometry x="610" y="70" width="70" height="70" as="geometry" />
        </mxCell>
        <mxCell id="DufjBpLcltL52u9y2ums-43" value="Text" style="ellipse;whiteSpace=wrap;html=1;align=center;fontStyle=1;labelBackgroundColor=none;fillColor=#e6d0de;gradientColor=#d5739d;strokeColor=#996185;fontSize=14;" vertex="1" parent="1">
          <mxGeometry x="690" y="70" width="70" height="70" as="geometry" />
        </mxCell>
        <mxCell id="DufjBpLcltL52u9y2ums-44" value="Date&amp;nbsp;&lt;div style=&quot;font-size: 14px;&quot;&gt;&amp;amp;&lt;/div&gt;&lt;div style=&quot;font-size: 14px;&quot;&gt;Time&lt;/div&gt;" style="ellipse;whiteSpace=wrap;html=1;align=center;fontStyle=1;labelBackgroundColor=none;fillColor=#e6d0de;gradientColor=#d5739d;strokeColor=#996185;fontSize=14;" vertex="1" parent="1">
          <mxGeometry x="770" y="110" width="70" height="70" as="geometry" />
        </mxCell>
        <mxCell id="DufjBpLcltL52u9y2ums-45" value="Sender&lt;div style=&quot;font-size: 14px;&quot;&gt;ID&lt;/div&gt;" style="ellipse;whiteSpace=wrap;html=1;align=center;fontStyle=1;labelBackgroundColor=none;fillColor=#e6d0de;gradientColor=#d5739d;strokeColor=#996185;fontSize=14;" vertex="1" parent="1">
          <mxGeometry x="740" y="250" width="70" height="70" as="geometry" />
        </mxCell>
        <mxCell id="DufjBpLcltL52u9y2ums-46" value="Receiver&lt;div style=&quot;font-size: 14px;&quot;&gt;ID&lt;/div&gt;" style="ellipse;whiteSpace=wrap;html=1;align=center;fontStyle=1;labelBackgroundColor=none;fillColor=#e6d0de;gradientColor=#d5739d;strokeColor=#996185;fontSize=14;" vertex="1" parent="1">
          <mxGeometry x="790" y="190" width="70" height="70" as="geometry" />
        </mxCell>
        <mxCell id="DufjBpLcltL52u9y2ums-47" value="DelTag" style="ellipse;whiteSpace=wrap;html=1;align=center;fontStyle=1;labelBackgroundColor=none;fillColor=#e6d0de;gradientColor=#d5739d;strokeColor=#996185;fontSize=14;" vertex="1" parent="1">
          <mxGeometry x="530" y="260" width="70" height="70" as="geometry" />
        </mxCell>
        <mxCell id="DufjBpLcltL52u9y2ums-50" value="" style="endArrow=none;html=1;rounded=0;entryX=0;entryY=0;entryDx=0;entryDy=0;fontStyle=1;labelBackgroundColor=none;align=center;fillColor=#e6d0de;gradientColor=#d5739d;strokeColor=#996185;fontSize=14;" edge="1" parent="1" target="DufjBpLcltL52u9y2ums-26">
          <mxGeometry relative="1" as="geometry">
            <mxPoint x="560" y="140" as="sourcePoint" />
            <mxPoint x="720" y="140" as="targetPoint" />
          </mxGeometry>
        </mxCell>
        <mxCell id="DufjBpLcltL52u9y2ums-51" value="" style="endArrow=none;html=1;rounded=0;exitX=0.5;exitY=1;exitDx=0;exitDy=0;fontStyle=1;labelBackgroundColor=none;align=center;fillColor=#e6d0de;gradientColor=#d5739d;strokeColor=#996185;fontSize=14;" edge="1" parent="1" source="DufjBpLcltL52u9y2ums-36" target="DufjBpLcltL52u9y2ums-26">
          <mxGeometry relative="1" as="geometry">
            <mxPoint x="650" y="140" as="sourcePoint" />
            <mxPoint x="700" y="180" as="targetPoint" />
          </mxGeometry>
        </mxCell>
        <mxCell id="DufjBpLcltL52u9y2ums-52" value="" style="endArrow=none;html=1;rounded=0;entryX=1;entryY=0;entryDx=0;entryDy=0;exitX=0.5;exitY=1;exitDx=0;exitDy=0;fontStyle=1;labelBackgroundColor=none;align=center;fillColor=#e6d0de;gradientColor=#d5739d;strokeColor=#996185;fontSize=14;" edge="1" parent="1" source="DufjBpLcltL52u9y2ums-43" target="DufjBpLcltL52u9y2ums-26">
          <mxGeometry relative="1" as="geometry">
            <mxPoint x="580" y="160" as="sourcePoint" />
            <mxPoint x="630" y="200" as="targetPoint" />
          </mxGeometry>
        </mxCell>
        <mxCell id="DufjBpLcltL52u9y2ums-53" value="" style="endArrow=none;html=1;rounded=0;fontStyle=1;labelBackgroundColor=none;align=center;fillColor=#e6d0de;gradientColor=#d5739d;strokeColor=#996185;fontSize=14;" edge="1" parent="1">
          <mxGeometry relative="1" as="geometry">
            <mxPoint x="710" y="220" as="sourcePoint" />
            <mxPoint x="760" y="260" as="targetPoint" />
          </mxGeometry>
        </mxCell>
        <mxCell id="DufjBpLcltL52u9y2ums-54" value="" style="endArrow=none;html=1;rounded=0;entryX=0;entryY=0.5;entryDx=0;entryDy=0;fontStyle=1;labelBackgroundColor=none;align=center;fillColor=#e6d0de;gradientColor=#d5739d;strokeColor=#996185;fontSize=14;" edge="1" parent="1" target="DufjBpLcltL52u9y2ums-44">
          <mxGeometry relative="1" as="geometry">
            <mxPoint x="710" y="200" as="sourcePoint" />
            <mxPoint x="760" y="240" as="targetPoint" />
          </mxGeometry>
        </mxCell>
        <mxCell id="DufjBpLcltL52u9y2ums-55" value="" style="endArrow=none;html=1;rounded=0;entryX=0;entryY=0.5;entryDx=0;entryDy=0;fontStyle=1;labelBackgroundColor=none;align=center;fillColor=#e6d0de;gradientColor=#d5739d;strokeColor=#996185;fontSize=14;" edge="1" parent="1" target="DufjBpLcltL52u9y2ums-46">
          <mxGeometry relative="1" as="geometry">
            <mxPoint x="710" y="210" as="sourcePoint" />
            <mxPoint x="659" y="270" as="targetPoint" />
          </mxGeometry>
        </mxCell>
        <mxCell id="DufjBpLcltL52u9y2ums-58" value="" style="endArrow=none;html=1;rounded=0;entryX=0;entryY=0;entryDx=0;entryDy=0;exitX=0;exitY=1;exitDx=0;exitDy=0;fontStyle=1;labelBackgroundColor=none;align=center;fillColor=#e6d0de;gradientColor=#d5739d;strokeColor=#996185;fontSize=14;" edge="1" parent="1" source="DufjBpLcltL52u9y2ums-26">
          <mxGeometry relative="1" as="geometry">
            <mxPoint x="520" y="220" as="sourcePoint" />
            <mxPoint x="570" y="260" as="targetPoint" />
          </mxGeometry>
        </mxCell>
        <mxCell id="DufjBpLcltL52u9y2ums-59" value="" style="shape=link;html=1;rounded=0;exitX=0.967;exitY=0.507;exitDx=0;exitDy=0;exitPerimeter=0;fillColor=#e6d0de;gradientColor=#d5739d;strokeColor=#996185;fontSize=14;" edge="1" parent="1" source="DufjBpLcltL52u9y2ums-25">
          <mxGeometry relative="1" as="geometry">
            <mxPoint x="460" y="200" as="sourcePoint" />
            <mxPoint x="610" y="200" as="targetPoint" />
          </mxGeometry>
        </mxCell>
        <mxCell id="DufjBpLcltL52u9y2ums-60" value="&lt;font color=&quot;#d5739d&quot; style=&quot;font-size: 18px;&quot;&gt;N&lt;/font&gt;" style="resizable=0;html=1;whiteSpace=wrap;align=right;verticalAlign=bottom;fontSize=14;" connectable="0" vertex="1" parent="DufjBpLcltL52u9y2ums-59">
          <mxGeometry x="1" relative="1" as="geometry">
            <mxPoint x="-45" y="-10" as="offset" />
          </mxGeometry>
        </mxCell>
        <mxCell id="DufjBpLcltL52u9y2ums-62" value="Attachments " style="whiteSpace=wrap;html=1;align=center;fillColor=#e6d0de;strokeColor=#996185;gradientColor=#d5739d;fontStyle=1;labelBackgroundColor=none;fontSize=14;" vertex="1" parent="1">
          <mxGeometry x="610" y="530" width="100" height="40" as="geometry" />
        </mxCell>
        <mxCell id="DufjBpLcltL52u9y2ums-63" value="" style="endArrow=none;html=1;rounded=0;entryX=0;entryY=0;entryDx=0;entryDy=0;fillColor=#e6d0de;strokeColor=#996185;gradientColor=#d5739d;fontStyle=1;labelBackgroundColor=none;align=center;fontSize=14;" edge="1" parent="1" target="DufjBpLcltL52u9y2ums-62">
          <mxGeometry relative="1" as="geometry">
            <mxPoint x="510" y="489" as="sourcePoint" />
            <mxPoint x="670" y="489" as="targetPoint" />
          </mxGeometry>
        </mxCell>
        <mxCell id="DufjBpLcltL52u9y2ums-64" value="" style="endArrow=none;html=1;rounded=0;entryX=0.5;entryY=0;entryDx=0;entryDy=0;fillColor=#e6d0de;strokeColor=#996185;gradientColor=#d5739d;fontStyle=1;labelBackgroundColor=none;align=center;exitX=0.5;exitY=1;exitDx=0;exitDy=0;fontSize=14;" edge="1" parent="1" target="DufjBpLcltL52u9y2ums-62" source="DufjBpLcltL52u9y2ums-78">
          <mxGeometry relative="1" as="geometry">
            <mxPoint x="660" y="440" as="sourcePoint" />
            <mxPoint x="660" y="540" as="targetPoint" />
          </mxGeometry>
        </mxCell>
        <mxCell id="DufjBpLcltL52u9y2ums-65" value="" style="endArrow=none;html=1;rounded=0;entryX=1;entryY=0;entryDx=0;entryDy=0;fillColor=#e6d0de;strokeColor=#996185;gradientColor=#d5739d;fontStyle=1;labelBackgroundColor=none;align=center;fontSize=14;" edge="1" parent="1" target="DufjBpLcltL52u9y2ums-62">
          <mxGeometry relative="1" as="geometry">
            <mxPoint x="790" y="490" as="sourcePoint" />
            <mxPoint x="950" y="490" as="targetPoint" />
          </mxGeometry>
        </mxCell>
        <mxCell id="DufjBpLcltL52u9y2ums-66" value="" style="endArrow=none;html=1;rounded=0;entryX=1;entryY=1;entryDx=0;entryDy=0;fillColor=#e6d0de;strokeColor=#996185;gradientColor=#d5739d;fontStyle=1;labelBackgroundColor=none;align=center;fontSize=14;" edge="1" parent="1" target="DufjBpLcltL52u9y2ums-62" source="DufjBpLcltL52u9y2ums-70">
          <mxGeometry relative="1" as="geometry">
            <mxPoint x="660" y="610" as="sourcePoint" />
            <mxPoint x="810" y="610" as="targetPoint" />
          </mxGeometry>
        </mxCell>
        <mxCell id="DufjBpLcltL52u9y2ums-67" value="Attachment&lt;div style=&quot;font-size: 14px;&quot;&gt;ID&lt;/div&gt;" style="ellipse;whiteSpace=wrap;html=1;align=center;fillColor=#e6d0de;strokeColor=#996185;gradientColor=#d5739d;fontStyle=1;labelBackgroundColor=none;fontSize=14;" vertex="1" parent="1">
          <mxGeometry x="470" y="450" width="100" height="40" as="geometry" />
        </mxCell>
        <mxCell id="DufjBpLcltL52u9y2ums-68" value="fileData" style="ellipse;whiteSpace=wrap;html=1;align=center;fillColor=#e6d0de;strokeColor=#996185;gradientColor=#d5739d;fontStyle=1;labelBackgroundColor=none;fontSize=14;" vertex="1" parent="1">
          <mxGeometry x="480" y="590" width="100" height="40" as="geometry" />
        </mxCell>
        <mxCell id="DufjBpLcltL52u9y2ums-69" value="fileName" style="ellipse;whiteSpace=wrap;html=1;align=center;fillColor=#e6d0de;strokeColor=#996185;gradientColor=#d5739d;fontStyle=1;labelBackgroundColor=none;fontSize=14;" vertex="1" parent="1">
          <mxGeometry x="750" y="450" width="100" height="40" as="geometry" />
        </mxCell>
        <mxCell id="DufjBpLcltL52u9y2ums-70" value="Message&lt;div style=&quot;font-size: 14px;&quot;&gt;ID&lt;/div&gt;" style="ellipse;whiteSpace=wrap;html=1;align=center;fillColor=#e6d0de;strokeColor=#996185;gradientColor=#d5739d;fontStyle=1;labelBackgroundColor=none;fontSize=14;" vertex="1" parent="1">
          <mxGeometry x="755" y="590" width="100" height="40" as="geometry" />
        </mxCell>
        <mxCell id="DufjBpLcltL52u9y2ums-76" value="" style="endArrow=none;html=1;rounded=0;exitX=0;exitY=1;exitDx=0;exitDy=0;fillColor=#e6d0de;gradientColor=#d5739d;strokeColor=#996185;fontSize=14;" edge="1" parent="1" source="DufjBpLcltL52u9y2ums-62">
          <mxGeometry relative="1" as="geometry">
            <mxPoint x="380" y="590" as="sourcePoint" />
            <mxPoint x="540" y="590" as="targetPoint" />
          </mxGeometry>
        </mxCell>
        <mxCell id="DufjBpLcltL52u9y2ums-78" value="&lt;span style=&quot;font-weight: 700; font-size: 14px;&quot;&gt;Attach&lt;/span&gt;" style="shape=rhombus;perimeter=rhombusPerimeter;whiteSpace=wrap;html=1;align=center;fillColor=#e6d0de;gradientColor=#d5739d;strokeColor=#996185;fontSize=14;" vertex="1" parent="1">
          <mxGeometry x="600" y="370" width="120" height="60" as="geometry" />
        </mxCell>
        <mxCell id="DufjBpLcltL52u9y2ums-79" value="" style="endArrow=none;html=1;rounded=0;exitX=0.5;exitY=0;exitDx=0;exitDy=0;entryX=0.5;entryY=1;entryDx=0;entryDy=0;fillColor=#e6d0de;gradientColor=#d5739d;strokeColor=#996185;fontSize=14;" edge="1" parent="1" source="DufjBpLcltL52u9y2ums-78" target="DufjBpLcltL52u9y2ums-26">
          <mxGeometry relative="1" as="geometry">
            <mxPoint x="620" y="320" as="sourcePoint" />
            <mxPoint x="780" y="320" as="targetPoint" />
          </mxGeometry>
        </mxCell>
        <mxCell id="DufjBpLcltL52u9y2ums-80" value="&lt;font color=&quot;#d5739d&quot; style=&quot;font-size: 18px;&quot;&gt;1&lt;/font&gt;" style="resizable=0;html=1;whiteSpace=wrap;align=center;verticalAlign=bottom;fontStyle=1;labelBackgroundColor=none;fontSize=14;" connectable="0" vertex="1" parent="1">
          <mxGeometry x="670" y="260" as="geometry" />
        </mxCell>
        <mxCell id="DufjBpLcltL52u9y2ums-81" value="&lt;font color=&quot;#d5739d&quot; style=&quot;font-size: 18px;&quot;&gt;N&lt;/font&gt;" style="resizable=0;html=1;whiteSpace=wrap;align=right;verticalAlign=bottom;fontSize=14;" connectable="0" vertex="1" parent="1">
          <mxGeometry x="574.5688752439805" y="200.00110436934324" as="geometry">
            <mxPoint x="111" y="320" as="offset" />
          </mxGeometry>
        </mxCell>
        <mxCell id="DufjBpLcltL52u9y2ums-168" value="&lt;span style=&quot;font-size: 14px; font-weight: 700; text-wrap-mode: wrap;&quot;&gt;User&lt;/span&gt;" style="text;html=1;align=center;verticalAlign=middle;resizable=0;points=[];autosize=1;strokeColor=#996185;fillColor=#e6d0de;fontSize=14;gradientColor=#d5739d;" vertex="1" parent="1">
          <mxGeometry x="135" y="758" width="50" height="30" as="geometry" />
        </mxCell>
        <mxCell id="DufjBpLcltL52u9y2ums-169" value="" style="shape=table;startSize=0;container=1;collapsible=0;childLayout=tableLayout;fontSize=14;fillColor=#e6d0de;gradientColor=#d5739d;strokeColor=#996185;" vertex="1" parent="1">
          <mxGeometry x="-70" y="420" width="500" height="130" as="geometry" />
        </mxCell>
        <mxCell id="DufjBpLcltL52u9y2ums-170" value="" style="shape=tableRow;horizontal=0;startSize=0;swimlaneHead=0;swimlaneBody=0;strokeColor=#996185;top=0;left=0;bottom=0;right=0;collapsible=0;dropTarget=0;fillColor=#e6d0de;points=[[0,0.5],[1,0.5]];portConstraint=eastwest;fontSize=14;gradientColor=#d5739d;" vertex="1" parent="DufjBpLcltL52u9y2ums-169">
          <mxGeometry width="500" height="65" as="geometry" />
        </mxCell>
        <mxCell id="DufjBpLcltL52u9y2ums-171" value="&lt;font style=&quot;font-weight: 700; font-size: 14px;&quot;&gt;Message&lt;/font&gt;&lt;div style=&quot;font-weight: 700; font-size: 14px;&quot;&gt;ID&lt;/div&gt;&lt;div style=&quot;font-weight: 700; font-size: 14px;&quot;&gt;(Key)&lt;/div&gt;" style="shape=partialRectangle;html=1;whiteSpace=wrap;connectable=0;strokeColor=#996185;overflow=hidden;fillColor=#e6d0de;top=0;left=0;bottom=0;right=0;pointerEvents=1;fontSize=14;gradientColor=#d5739d;" vertex="1" parent="DufjBpLcltL52u9y2ums-170">
          <mxGeometry width="71" height="65" as="geometry">
            <mxRectangle width="71" height="65" as="alternateBounds" />
          </mxGeometry>
        </mxCell>
        <mxCell id="DufjBpLcltL52u9y2ums-172" value="&lt;span style=&quot;font-size: 14px; font-weight: 700;&quot;&gt;Subject&lt;/span&gt;" style="shape=partialRectangle;html=1;whiteSpace=wrap;connectable=0;strokeColor=#996185;overflow=hidden;fillColor=#e6d0de;top=0;left=0;bottom=0;right=0;pointerEvents=1;fontSize=14;gradientColor=#d5739d;" vertex="1" parent="DufjBpLcltL52u9y2ums-170">
          <mxGeometry x="71" width="72" height="65" as="geometry">
            <mxRectangle width="72" height="65" as="alternateBounds" />
          </mxGeometry>
        </mxCell>
        <mxCell id="DufjBpLcltL52u9y2ums-173" value="&lt;span style=&quot;font-size: 14px; font-weight: 700;&quot;&gt;Text&lt;/span&gt;" style="shape=partialRectangle;html=1;whiteSpace=wrap;connectable=0;strokeColor=#996185;overflow=hidden;fillColor=#e6d0de;top=0;left=0;bottom=0;right=0;pointerEvents=1;fontSize=14;gradientColor=#d5739d;" vertex="1" parent="DufjBpLcltL52u9y2ums-170">
          <mxGeometry x="143" width="71" height="65" as="geometry">
            <mxRectangle width="71" height="65" as="alternateBounds" />
          </mxGeometry>
        </mxCell>
        <mxCell id="DufjBpLcltL52u9y2ums-174" value="&lt;span style=&quot;font-size: 14px; font-weight: 700;&quot;&gt;Date&amp;nbsp;&lt;/span&gt;&lt;div style=&quot;font-size: 14px; font-weight: 700;&quot;&gt;&amp;amp;&lt;/div&gt;&lt;div style=&quot;font-size: 14px; font-weight: 700;&quot;&gt;Time&lt;/div&gt;" style="shape=partialRectangle;html=1;whiteSpace=wrap;connectable=0;strokeColor=#996185;overflow=hidden;fillColor=#e6d0de;top=0;left=0;bottom=0;right=0;pointerEvents=1;fontSize=14;gradientColor=#d5739d;" vertex="1" parent="DufjBpLcltL52u9y2ums-170">
          <mxGeometry x="214" width="72" height="65" as="geometry">
            <mxRectangle width="72" height="65" as="alternateBounds" />
          </mxGeometry>
        </mxCell>
        <mxCell id="DufjBpLcltL52u9y2ums-185" value="&lt;span style=&quot;font-size: 14px; font-weight: 700;&quot;&gt;Receiver&lt;/span&gt;&lt;div style=&quot;font-size: 14px; font-weight: 700;&quot;&gt;ID&lt;/div&gt;" style="shape=partialRectangle;html=1;whiteSpace=wrap;connectable=0;strokeColor=#996185;overflow=hidden;fillColor=#e6d0de;top=0;left=0;bottom=0;right=0;pointerEvents=1;fontSize=14;gradientColor=#d5739d;" vertex="1" parent="DufjBpLcltL52u9y2ums-170">
          <mxGeometry x="286" width="71" height="65" as="geometry">
            <mxRectangle width="71" height="65" as="alternateBounds" />
          </mxGeometry>
        </mxCell>
        <mxCell id="DufjBpLcltL52u9y2ums-183" value="&lt;span style=&quot;font-size: 14px; font-weight: 700;&quot;&gt;Sender&lt;/span&gt;&lt;div style=&quot;font-size: 14px; font-weight: 700;&quot;&gt;ID&lt;/div&gt;" style="shape=partialRectangle;html=1;whiteSpace=wrap;connectable=0;strokeColor=#996185;overflow=hidden;fillColor=#e6d0de;top=0;left=0;bottom=0;right=0;pointerEvents=1;fontSize=14;gradientColor=#d5739d;" vertex="1" parent="DufjBpLcltL52u9y2ums-170">
          <mxGeometry x="357" width="72" height="65" as="geometry">
            <mxRectangle width="72" height="65" as="alternateBounds" />
          </mxGeometry>
        </mxCell>
        <mxCell id="DufjBpLcltL52u9y2ums-181" value="&lt;span style=&quot;font-size: 14px; font-weight: 700;&quot;&gt;DelTag&lt;/span&gt;" style="shape=partialRectangle;html=1;whiteSpace=wrap;connectable=0;strokeColor=#996185;overflow=hidden;fillColor=#e6d0de;top=0;left=0;bottom=0;right=0;pointerEvents=1;fontSize=14;gradientColor=#d5739d;" vertex="1" parent="DufjBpLcltL52u9y2ums-170">
          <mxGeometry x="429" width="71" height="65" as="geometry">
            <mxRectangle width="71" height="65" as="alternateBounds" />
          </mxGeometry>
        </mxCell>
        <mxCell id="DufjBpLcltL52u9y2ums-175" value="" style="shape=tableRow;horizontal=0;startSize=0;swimlaneHead=0;swimlaneBody=0;strokeColor=#996185;top=0;left=0;bottom=0;right=0;collapsible=0;dropTarget=0;fillColor=#e6d0de;points=[[0,0.5],[1,0.5]];portConstraint=eastwest;fontSize=14;gradientColor=#d5739d;" vertex="1" parent="DufjBpLcltL52u9y2ums-169">
          <mxGeometry y="65" width="500" height="65" as="geometry" />
        </mxCell>
        <mxCell id="DufjBpLcltL52u9y2ums-176" value="" style="shape=partialRectangle;html=1;whiteSpace=wrap;connectable=0;strokeColor=#996185;overflow=hidden;fillColor=#e6d0de;top=0;left=0;bottom=0;right=0;pointerEvents=1;fontSize=14;gradientColor=#d5739d;" vertex="1" parent="DufjBpLcltL52u9y2ums-175">
          <mxGeometry width="71" height="65" as="geometry">
            <mxRectangle width="71" height="65" as="alternateBounds" />
          </mxGeometry>
        </mxCell>
        <mxCell id="DufjBpLcltL52u9y2ums-177" value="" style="shape=partialRectangle;html=1;whiteSpace=wrap;connectable=0;strokeColor=#996185;overflow=hidden;fillColor=#e6d0de;top=0;left=0;bottom=0;right=0;pointerEvents=1;fontSize=14;gradientColor=#d5739d;" vertex="1" parent="DufjBpLcltL52u9y2ums-175">
          <mxGeometry x="71" width="72" height="65" as="geometry">
            <mxRectangle width="72" height="65" as="alternateBounds" />
          </mxGeometry>
        </mxCell>
        <mxCell id="DufjBpLcltL52u9y2ums-178" value="" style="shape=partialRectangle;html=1;whiteSpace=wrap;connectable=0;strokeColor=#996185;overflow=hidden;fillColor=#e6d0de;top=0;left=0;bottom=0;right=0;pointerEvents=1;fontSize=14;gradientColor=#d5739d;" vertex="1" parent="DufjBpLcltL52u9y2ums-175">
          <mxGeometry x="143" width="71" height="65" as="geometry">
            <mxRectangle width="71" height="65" as="alternateBounds" />
          </mxGeometry>
        </mxCell>
        <mxCell id="DufjBpLcltL52u9y2ums-179" style="shape=partialRectangle;html=1;whiteSpace=wrap;connectable=0;strokeColor=#996185;overflow=hidden;fillColor=#e6d0de;top=0;left=0;bottom=0;right=0;pointerEvents=1;fontSize=14;gradientColor=#d5739d;" vertex="1" parent="DufjBpLcltL52u9y2ums-175">
          <mxGeometry x="214" width="72" height="65" as="geometry">
            <mxRectangle width="72" height="65" as="alternateBounds" />
          </mxGeometry>
        </mxCell>
        <mxCell id="DufjBpLcltL52u9y2ums-186" style="shape=partialRectangle;html=1;whiteSpace=wrap;connectable=0;strokeColor=#996185;overflow=hidden;fillColor=#e6d0de;top=0;left=0;bottom=0;right=0;pointerEvents=1;fontSize=14;gradientColor=#d5739d;" vertex="1" parent="DufjBpLcltL52u9y2ums-175">
          <mxGeometry x="286" width="71" height="65" as="geometry">
            <mxRectangle width="71" height="65" as="alternateBounds" />
          </mxGeometry>
        </mxCell>
        <mxCell id="DufjBpLcltL52u9y2ums-184" style="shape=partialRectangle;html=1;whiteSpace=wrap;connectable=0;strokeColor=#996185;overflow=hidden;fillColor=#e6d0de;top=0;left=0;bottom=0;right=0;pointerEvents=1;fontSize=14;gradientColor=#d5739d;" vertex="1" parent="DufjBpLcltL52u9y2ums-175">
          <mxGeometry x="357" width="72" height="65" as="geometry">
            <mxRectangle width="72" height="65" as="alternateBounds" />
          </mxGeometry>
        </mxCell>
        <mxCell id="DufjBpLcltL52u9y2ums-182" style="shape=partialRectangle;html=1;whiteSpace=wrap;connectable=0;strokeColor=#996185;overflow=hidden;fillColor=#e6d0de;top=0;left=0;bottom=0;right=0;pointerEvents=1;fontSize=14;gradientColor=#d5739d;" vertex="1" parent="DufjBpLcltL52u9y2ums-175">
          <mxGeometry x="429" width="71" height="65" as="geometry">
            <mxRectangle width="71" height="65" as="alternateBounds" />
          </mxGeometry>
        </mxCell>
        <mxCell id="DufjBpLcltL52u9y2ums-180" value="&lt;span style=&quot;font-size: 14px; font-weight: 700; text-wrap-mode: wrap;&quot;&gt;Messages&lt;/span&gt;" style="text;html=1;align=center;verticalAlign=middle;resizable=0;points=[];autosize=1;strokeColor=#996185;fillColor=#e6d0de;fontSize=14;gradientColor=#d5739d;" vertex="1" parent="1">
          <mxGeometry x="135" y="560" width="90" height="30" as="geometry" />
        </mxCell>
        <mxCell id="DufjBpLcltL52u9y2ums-187" value="" style="shape=table;startSize=0;container=1;collapsible=0;childLayout=tableLayout;fontSize=14;fillColor=#e6d0de;strokeColor=#996185;gradientColor=#d5739d;" vertex="1" parent="1">
          <mxGeometry x="480" y="680" width="320" height="100" as="geometry" />
        </mxCell>
        <mxCell id="DufjBpLcltL52u9y2ums-188" value="" style="shape=tableRow;horizontal=0;startSize=0;swimlaneHead=0;swimlaneBody=0;strokeColor=#996185;top=0;left=0;bottom=0;right=0;collapsible=0;dropTarget=0;fillColor=#e6d0de;points=[[0,0.5],[1,0.5]];portConstraint=eastwest;fontSize=14;gradientColor=#d5739d;" vertex="1" parent="DufjBpLcltL52u9y2ums-187">
          <mxGeometry width="320" height="50" as="geometry" />
        </mxCell>
        <mxCell id="DufjBpLcltL52u9y2ums-189" value="&lt;span style=&quot;font-size: 14px; font-weight: 700;&quot;&gt;Attachment&lt;/span&gt;&lt;div style=&quot;font-size: 14px; font-weight: 700;&quot;&gt;ID&lt;/div&gt;" style="shape=partialRectangle;html=1;whiteSpace=wrap;connectable=0;strokeColor=#996185;overflow=hidden;fillColor=#e6d0de;top=0;left=0;bottom=0;right=0;pointerEvents=1;fontSize=14;gradientColor=#d5739d;" vertex="1" parent="DufjBpLcltL52u9y2ums-188">
          <mxGeometry width="80" height="50" as="geometry">
            <mxRectangle width="80" height="50" as="alternateBounds" />
          </mxGeometry>
        </mxCell>
        <mxCell id="DufjBpLcltL52u9y2ums-190" value="&lt;span style=&quot;font-size: 14px; font-weight: 700;&quot;&gt;fileName&lt;/span&gt;" style="shape=partialRectangle;html=1;whiteSpace=wrap;connectable=0;strokeColor=#996185;overflow=hidden;fillColor=#e6d0de;top=0;left=0;bottom=0;right=0;pointerEvents=1;fontSize=14;gradientColor=#d5739d;" vertex="1" parent="DufjBpLcltL52u9y2ums-188">
          <mxGeometry x="80" width="80" height="50" as="geometry">
            <mxRectangle width="80" height="50" as="alternateBounds" />
          </mxGeometry>
        </mxCell>
        <mxCell id="DufjBpLcltL52u9y2ums-191" value="&lt;span style=&quot;font-size: 14px; font-weight: 700;&quot;&gt;Message&lt;/span&gt;&lt;div style=&quot;font-size: 14px; font-weight: 700;&quot;&gt;ID&lt;/div&gt;" style="shape=partialRectangle;html=1;whiteSpace=wrap;connectable=0;strokeColor=#996185;overflow=hidden;fillColor=#e6d0de;top=0;left=0;bottom=0;right=0;pointerEvents=1;fontSize=14;gradientColor=#d5739d;" vertex="1" parent="DufjBpLcltL52u9y2ums-188">
          <mxGeometry x="160" width="80" height="50" as="geometry">
            <mxRectangle width="80" height="50" as="alternateBounds" />
          </mxGeometry>
        </mxCell>
        <mxCell id="DufjBpLcltL52u9y2ums-192" value="&lt;span style=&quot;font-size: 14px; font-weight: 700;&quot;&gt;fileData&lt;/span&gt;" style="shape=partialRectangle;html=1;whiteSpace=wrap;connectable=0;strokeColor=#996185;overflow=hidden;fillColor=#e6d0de;top=0;left=0;bottom=0;right=0;pointerEvents=1;fontSize=14;gradientColor=#d5739d;" vertex="1" parent="DufjBpLcltL52u9y2ums-188">
          <mxGeometry x="240" width="80" height="50" as="geometry">
            <mxRectangle width="80" height="50" as="alternateBounds" />
          </mxGeometry>
        </mxCell>
        <mxCell id="DufjBpLcltL52u9y2ums-193" value="" style="shape=tableRow;horizontal=0;startSize=0;swimlaneHead=0;swimlaneBody=0;strokeColor=#996185;top=0;left=0;bottom=0;right=0;collapsible=0;dropTarget=0;fillColor=#e6d0de;points=[[0,0.5],[1,0.5]];portConstraint=eastwest;fontSize=14;gradientColor=#d5739d;" vertex="1" parent="DufjBpLcltL52u9y2ums-187">
          <mxGeometry y="50" width="320" height="50" as="geometry" />
        </mxCell>
        <mxCell id="DufjBpLcltL52u9y2ums-194" value="" style="shape=partialRectangle;html=1;whiteSpace=wrap;connectable=0;strokeColor=#996185;overflow=hidden;fillColor=#e6d0de;top=0;left=0;bottom=0;right=0;pointerEvents=1;fontSize=14;gradientColor=#d5739d;" vertex="1" parent="DufjBpLcltL52u9y2ums-193">
          <mxGeometry width="80" height="50" as="geometry">
            <mxRectangle width="80" height="50" as="alternateBounds" />
          </mxGeometry>
        </mxCell>
        <mxCell id="DufjBpLcltL52u9y2ums-195" value="" style="shape=partialRectangle;html=1;whiteSpace=wrap;connectable=0;strokeColor=#996185;overflow=hidden;fillColor=#e6d0de;top=0;left=0;bottom=0;right=0;pointerEvents=1;fontSize=14;gradientColor=#d5739d;" vertex="1" parent="DufjBpLcltL52u9y2ums-193">
          <mxGeometry x="80" width="80" height="50" as="geometry">
            <mxRectangle width="80" height="50" as="alternateBounds" />
          </mxGeometry>
        </mxCell>
        <mxCell id="DufjBpLcltL52u9y2ums-196" value="" style="shape=partialRectangle;html=1;whiteSpace=wrap;connectable=0;strokeColor=#996185;overflow=hidden;fillColor=#e6d0de;top=0;left=0;bottom=0;right=0;pointerEvents=1;fontSize=14;gradientColor=#d5739d;" vertex="1" parent="DufjBpLcltL52u9y2ums-193">
          <mxGeometry x="160" width="80" height="50" as="geometry">
            <mxRectangle width="80" height="50" as="alternateBounds" />
          </mxGeometry>
        </mxCell>
        <mxCell id="DufjBpLcltL52u9y2ums-197" style="shape=partialRectangle;html=1;whiteSpace=wrap;connectable=0;strokeColor=#996185;overflow=hidden;fillColor=#e6d0de;top=0;left=0;bottom=0;right=0;pointerEvents=1;fontSize=14;gradientColor=#d5739d;" vertex="1" parent="DufjBpLcltL52u9y2ums-193">
          <mxGeometry x="240" width="80" height="50" as="geometry">
            <mxRectangle width="80" height="50" as="alternateBounds" />
          </mxGeometry>
        </mxCell>
        <mxCell id="DufjBpLcltL52u9y2ums-198" value="&lt;span style=&quot;font-size: 14px; font-weight: 700; text-wrap-mode: wrap;&quot;&gt;Attachments&lt;/span&gt;" style="text;html=1;align=center;verticalAlign=middle;resizable=0;points=[];autosize=1;strokeColor=#996185;fillColor=#e6d0de;fontSize=14;gradientColor=#d5739d;" vertex="1" parent="1">
          <mxGeometry x="585" y="800" width="110" height="30" as="geometry" />
        </mxCell>
        <mxCell id="DufjBpLcltL52u9y2ums-199" value="&lt;div&gt;&lt;span style=&quot;font-size: 19px; background-color: initial;&quot;&gt;دانش خدادادزاده&lt;/span&gt;&lt;/div&gt;&lt;div&gt;&lt;span style=&quot;font-size: 19px;&quot;&gt;401 433 597&lt;/span&gt;&lt;/div&gt;" style="text;html=1;align=center;verticalAlign=middle;resizable=0;points=[];autosize=1;strokeColor=#996185;fillColor=#e6d0de;gradientColor=#d5739d;" vertex="1" parent="1">
          <mxGeometry x="235" y="310" width="130" height="60" as="geometry" />
        </mxCell>
      </root>
    </mxGraphModel>
  </diagram>
</mxfile>
